<svg width="42" height="21" viewBox="0 0 42 21" fill="none" xmlns="http://www.w3.org/2000/svg">
<path d="M0 9.26045V0.908447H3.108C3.716 0.908447 4.276 1.06045 4.788 1.36445C5.308 1.66845 5.72 2.08045 6.024 2.60045C6.328 3.11245 6.48 3.67245 6.48 4.28045V5.88845C6.48 6.49645 6.328 7.06045 6.024 7.58045C5.72 8.09245 5.308 8.50045 4.788 8.80445C4.276 9.10845 3.716 9.26045 3.108 9.26045H0Z" fill="black"/>
<path d="M11.6548 0.908447H12.1228L15.5548 9.26045H15.0748L13.9468 6.50045H9.83081L8.69081 9.26045H8.22281L11.6548 0.908447ZM10.0108 6.06845H13.7668L11.8828 1.48445L10.0108 6.06845Z" fill="black"/>
<path d="M23.8172 0.908447V1.35245H20.6612V9.26045H20.2292V1.35245H17.0732V0.908447H23.8172Z" fill="black"/>
<path d="M29.1 0.908447H29.568L33 9.26045H32.52L31.392 6.50045H27.276L26.136 9.26045H25.668L29.1 0.908447ZM27.456 6.06845H31.212L29.328 1.48445L27.456 6.06845Z" fill="black"/>
<path d="M0.0172219 21V12.648H3.50922C4.09322 12.648 4.59722 12.756 5.02122 12.972C5.50922 13.22 5.89722 13.576 6.18522 14.04C6.47322 14.496 6.61722 15 6.61722 15.552C6.61722 16.104 6.47322 16.612 6.18522 17.076C5.90522 17.54 5.52122 17.896 5.03322 18.144C4.61722 18.36 4.10922 18.468 3.50922 18.468H2.20122V21H0.0172219Z" fill="black"/>
<path d="M13.484 12.924C13.964 13.148 14.34 13.48 14.612 13.92C14.892 14.36 15.032 14.848 15.032 15.384C15.032 16.008 14.84 16.568 14.456 17.064C14.08 17.552 13.596 17.876 13.004 18.036L15.128 21H14.6L12.548 18.12L12.164 18.132H9.15204V21H8.70804V12.648H11.888C12.24 12.648 12.54 12.672 12.788 12.72C13.044 12.76 13.276 12.828 13.484 12.924ZM12.284 17.688C12.7 17.688 13.084 17.584 13.436 17.376C13.788 17.168 14.068 16.888 14.276 16.536C14.484 16.184 14.588 15.8 14.588 15.384C14.588 14.92 14.464 14.5 14.216 14.124C13.976 13.748 13.64 13.468 13.208 13.284C12.896 13.156 12.456 13.092 11.888 13.092H9.15204V17.688H12.284Z" fill="black"/>
<path d="M23.2669 12.648V13.092H20.7709V20.556H23.2669V21H17.8549V20.556H20.3389V13.092H17.8549V12.648H23.2669Z" fill="black"/>
<path d="M26.5097 21H26.0657V12.648H26.5457L29.4617 17.796L32.3657 12.648H32.8097V21H32.3657V13.536L29.6657 18.3H29.2457L26.5097 13.476V21Z" fill="black"/>
<path d="M35.4405 12.648H41.3205V13.092H35.8845V16.476H40.6125V16.92H35.8845V20.556H41.3205V21H35.4405V12.648Z" fill="black"/>
</svg>
