<?xml version="1.0" standalone="no"?>
<!DOCTYPE svg PUBLIC "-//W3C//DTD SVG 20010904//EN"
 "http://www.w3.org/TR/2001/REC-SVG-20010904/DTD/svg10.dtd">
<svg version="1.0" xmlns="http://www.w3.org/2000/svg"
 width="500.000000pt" height="500.000000pt" viewBox="0 0 500.000000 500.000000"
 preserveAspectRatio="xMidYMid meet">
<metadata>
Created by potrace 1.11, written by Peter Selinger 2001-2013
</metadata>
<g transform="translate(0.000000,500.000000) scale(0.100000,-0.100000)"
fill="#000000" stroke="none">
<path d="M620 2500 l0 -1953 103 7 c56 3 118 9 137 11 253 39 423 92 622 192
407 205 724 535 910 948 67 149 125 344 144 485 3 25 8 54 11 65 3 11 7 106 8
210 5 257 -21 433 -96 660 -27 81 -130 302 -177 380 -19 32 -72 114 -85 130
-215 284 -449 481 -739 620 -238 115 -468 174 -740 191 l-98 7 0 -1953z"/>
<path d="M3015 3090 l0 -1362 104 6 c57 4 107 8 110 10 4 3 27 7 51 11 82 12
233 65 345 121 328 164 578 457 688 809 14 44 28 97 31 119 4 21 8 41 11 45 6
11 18 147 19 231 2 86 -9 204 -24 270 -6 25 -12 54 -14 66 -11 59 -73 220
-118 305 -82 157 -190 291 -330 409 -93 78 -81 69 -171 123 -131 80 -279 139
-422 168 -81 17 -87 17 -190 25 l-90 6 0 -1362z"/>
</g>
</svg>
